<svg width="254" height="54" viewBox="0 0 254 54" fill="none" xmlns="http://www.w3.org/2000/svg">
<path d="M121.942 43.2835C119.302 43.2835 116.947 42.6985 114.877 41.5285C112.837 40.3585 111.247 38.6335 110.107 36.3535C108.967 34.0735 108.397 31.2985 108.397 28.0285C108.397 24.8185 108.997 22.0735 110.197 19.7935C111.397 17.5135 113.107 15.7585 115.327 14.5285C117.577 13.2985 120.217 12.6835 123.247 12.6835C126.607 12.6835 129.322 13.2985 131.392 14.5285C133.462 15.7285 135.067 17.6485 136.207 20.2885L129.052 23.1235C128.662 21.5935 127.972 20.4835 126.982 19.7935C125.992 19.1035 124.762 18.7585 123.292 18.7585C121.822 18.7585 120.562 19.1185 119.512 19.8385C118.462 20.5285 117.667 21.5635 117.127 22.9435C116.587 24.2935 116.317 25.9735 116.317 27.9835C116.317 30.0835 116.587 31.8385 117.127 33.2485C117.697 34.6585 118.522 35.7085 119.602 36.3985C120.712 37.0585 122.077 37.3885 123.697 37.3885C124.567 37.3885 125.362 37.2835 126.082 37.0735C126.802 36.8635 127.432 36.5635 127.972 36.1735C128.512 35.7535 128.932 35.2435 129.232 34.6435C129.532 34.0135 129.682 33.2785 129.682 32.4385V31.9885H122.887V26.8135H136.252V42.8335H130.987L130.402 35.8585L131.662 36.9385C131.032 38.9785 129.892 40.5535 128.242 41.6635C126.622 42.7435 124.522 43.2835 121.942 43.2835Z" fill="url(#paint0_linear_65_482)"/>
<path d="M154.192 28.5685C154.192 27.5185 153.892 26.6935 153.292 26.0935C152.722 25.4635 151.942 25.1485 150.952 25.1485C149.962 25.1485 149.107 25.4035 148.387 25.9135C147.697 26.3935 147.217 27.2635 146.947 28.5235L140.467 26.9935C140.887 24.8335 141.997 23.1085 143.797 21.8185C145.597 20.5285 148.132 19.8835 151.402 19.8835C153.592 19.8835 155.452 20.2135 156.982 20.8735C158.542 21.5035 159.727 22.4635 160.537 23.7535C161.377 25.0135 161.797 26.5735 161.797 28.4335V36.6685C161.797 37.8385 162.322 38.4235 163.372 38.4235C163.912 38.4235 164.347 38.3635 164.677 38.2435L164.227 42.6085C163.327 43.0285 162.232 43.2385 160.942 43.2385C159.772 43.2385 158.737 43.0585 157.837 42.6985C156.937 42.3085 156.232 41.7385 155.722 40.9885C155.212 40.2085 154.957 39.2335 154.957 38.0635V37.7935L155.812 37.4785C155.812 38.7685 155.422 39.8485 154.642 40.7185C153.892 41.5885 152.902 42.2335 151.672 42.6535C150.472 43.0735 149.212 43.2835 147.892 43.2835C146.362 43.2835 145.027 43.0435 143.887 42.5635C142.747 42.0835 141.862 41.3935 141.232 40.4935C140.632 39.5635 140.332 38.4235 140.332 37.0735C140.332 35.4535 140.812 34.1185 141.772 33.0685C142.762 31.9885 144.307 31.2385 146.407 30.8185L154.912 29.0635L154.867 33.1135L150.547 34.0135C149.647 34.1935 148.972 34.4635 148.522 34.8235C148.102 35.1535 147.892 35.6635 147.892 36.3535C147.892 37.0135 148.132 37.5085 148.612 37.8385C149.092 38.1685 149.662 38.3335 150.322 38.3335C150.832 38.3335 151.312 38.2585 151.762 38.1085C152.242 37.9585 152.662 37.7335 153.022 37.4335C153.382 37.1035 153.667 36.6985 153.877 36.2185C154.087 35.7385 154.192 35.1685 154.192 34.5085V28.5685ZM167.697 42.8335V20.3335H174.537L174.762 24.6985C175.482 23.1085 176.487 21.9085 177.777 21.0985C179.097 20.2885 180.612 19.8835 182.322 19.8835C184.002 19.8835 185.457 20.2585 186.687 21.0085C187.917 21.7585 188.832 22.8685 189.432 24.3385C189.912 23.3485 190.527 22.5235 191.277 21.8635C192.057 21.2035 192.942 20.7085 193.932 20.3785C194.922 20.0485 195.942 19.8835 196.992 19.8835C198.492 19.8835 199.812 20.1835 200.952 20.7835C202.092 21.3535 202.992 22.2385 203.652 23.4385C204.342 24.6085 204.687 26.0785 204.687 27.8485V42.8335H197.037V29.6035C197.037 28.1635 196.752 27.1585 196.182 26.5885C195.642 26.0185 194.907 25.7335 193.977 25.7335C193.227 25.7335 192.537 25.9285 191.907 26.3185C191.307 26.6785 190.842 27.2335 190.512 27.9835C190.182 28.7335 190.017 29.6785 190.017 30.8185V42.8335H182.367V29.6035C182.367 28.1635 182.082 27.1585 181.512 26.5885C180.942 26.0185 180.207 25.7335 179.307 25.7335C178.617 25.7335 177.957 25.9135 177.327 26.2735C176.727 26.6335 176.247 27.2035 175.887 27.9835C175.527 28.7335 175.347 29.7235 175.347 30.9535V42.8335H167.697ZM221.04 43.2835C218.55 43.2835 216.39 42.8185 214.56 41.8885C212.76 40.9585 211.365 39.6235 210.375 37.8835C209.385 36.1435 208.89 34.0435 208.89 31.5835C208.89 29.1235 209.385 27.0235 210.375 25.2835C211.365 23.5435 212.745 22.2085 214.515 21.2785C216.315 20.3485 218.37 19.8835 220.68 19.8835C223.05 19.8835 225.06 20.3485 226.71 21.2785C228.39 22.1785 229.665 23.4385 230.535 25.0585C231.405 26.6485 231.84 28.4785 231.84 30.5485C231.84 31.0885 231.825 31.6285 231.795 32.1685C231.765 32.7085 231.72 33.1585 231.66 33.5185H213.84V29.4235H228.285L224.64 30.8185C224.64 29.0185 224.31 27.6385 223.65 26.6785C223.02 25.7185 222.03 25.2385 220.68 25.2385C219.72 25.2385 218.895 25.4635 218.205 25.9135C217.545 26.3635 217.035 27.0685 216.675 28.0285C216.345 28.9885 216.18 30.2185 216.18 31.7185C216.18 33.1885 216.375 34.3885 216.765 35.3185C217.155 36.2185 217.71 36.8785 218.43 37.2985C219.15 37.6885 220.02 37.8835 221.04 37.8835C222.18 37.8835 223.08 37.6585 223.74 37.2085C224.43 36.7585 224.94 36.1285 225.27 35.3185L231.39 37.3435C230.97 38.6335 230.235 39.7285 229.185 40.6285C228.165 41.4985 226.935 42.1585 225.495 42.6085C224.085 43.0585 222.6 43.2835 221.04 43.2835ZM236.119 42.8335V20.3335H242.869L243.184 25.1935C243.754 23.5135 244.594 22.2085 245.704 21.2785C246.844 20.3485 248.284 19.8835 250.024 19.8835C250.594 19.8835 251.074 19.9285 251.464 20.0185C251.884 20.1085 252.214 20.2285 252.454 20.3785L251.689 26.6785C251.389 26.5585 250.999 26.4685 250.519 26.4085C250.069 26.3185 249.514 26.2735 248.854 26.2735C247.954 26.2735 247.114 26.4685 246.334 26.8585C245.554 27.2485 244.924 27.8335 244.444 28.6135C243.994 29.3635 243.769 30.3235 243.769 31.4935V42.8335H236.119Z" fill="white"/>
<g clip-path="url(#clip0_65_482)">
<path fill-rule="evenodd" clip-rule="evenodd" d="M19.9473 6.95402L66.6667 6.8335C76.806 6.8335 86.0264 16.5209 86.0264 26.7205C86.0264 36.8599 77.2128 46.6678 66.0188 46.6678C54.8249 46.6678 48.6328 40.6414 47.1262 32.0086L38.9454 31.7224C37.4388 40.3552 29.5593 46.8486 19.9322 46.8486C10.3202 46.8335 0 37.6734 0 27.5341C0 17.3344 9.79284 6.95402 19.9473 6.95402Z" fill="url(#paint1_linear_65_482)"/>
<path fill-rule="evenodd" clip-rule="evenodd" d="M16.7533 17.6206H23.081V23.9332H29.4539V30.2609H23.081V36.5735H16.7533V30.2609H10.4407V23.9332H16.7533V17.6206Z" fill="white"/>
<path fill-rule="evenodd" clip-rule="evenodd" d="M72.4671 23.9333C70.7345 23.9333 69.3333 25.3194 69.3333 27.1273C69.3333 28.8599 70.7194 30.261 72.4671 30.261C74.1996 30.261 75.661 28.875 75.661 27.1273C75.661 25.3345 74.2147 23.9333 72.4671 23.9333Z" fill="white"/>
<path fill-rule="evenodd" clip-rule="evenodd" d="M66.1544 17.6206C64.4218 17.6206 62.9604 19.0067 62.9604 20.7543C62.9604 22.5472 64.4068 23.9483 66.1544 23.9483C67.887 23.9483 69.3484 22.5622 69.3484 20.7543C69.3333 19.0067 67.887 17.6206 66.1544 17.6206Z" fill="white"/>
<path fill-rule="evenodd" clip-rule="evenodd" d="M59.8267 23.9333C58.0942 23.9333 56.6328 25.3194 56.6328 27.1273C56.6328 28.8599 58.0791 30.261 59.8267 30.261C61.5593 30.261 62.9605 28.875 62.9605 27.1273C62.9605 25.3345 61.5744 23.9333 59.8267 23.9333Z" fill="white"/>
<path fill-rule="evenodd" clip-rule="evenodd" d="M66.1544 30.261C64.4218 30.261 62.9604 31.7073 62.9604 33.455C62.9604 35.2026 64.4068 36.5887 66.1544 36.5887C67.887 36.5887 69.3484 35.2026 69.3484 33.455C69.3333 31.7073 67.887 30.261 66.1544 30.261Z" fill="white"/>
</g>
<defs>
<linearGradient id="paint0_linear_65_482" x1="125.349" y1="27.3264" x2="235.316" y2="27.3264" gradientUnits="userSpaceOnUse">
<stop stop-color="#FF42A5"/>
<stop offset="1" stop-color="#FF42A5"/>
</linearGradient>
<linearGradient id="paint1_linear_65_482" x1="11.2989" y1="26.8357" x2="75.6531" y2="26.8357" gradientUnits="userSpaceOnUse">
<stop stop-color="#FF42A5"/>
<stop offset="1" stop-color="#FF42A5"/>
</linearGradient>
<clipPath id="clip0_65_482">
<rect width="86.0414" height="40" fill="white" transform="translate(0 6.8335)"/>
</clipPath>
</defs>
</svg>
